<svg width="281" height="36" viewBox="0 0 281 36" fill="none" xmlns="http://www.w3.org/2000/svg">
<circle cx="17.9993" cy="18.0007" r="17" transform="rotate(-179.14 17.9993 18.0007)" fill="#282828"/>
<path d="M20.8963 11.5561C21.0839 11.7516 21.1861 12.0135 21.1806 12.2844C21.1751 12.5552 21.0622 12.8128 20.8668 13.0004L15.7075 17.9532L20.6603 23.1125C20.8425 23.3089 20.9402 23.5691 20.9324 23.8368C20.9246 24.1046 20.8119 24.3586 20.6187 24.5441C20.4254 24.7296 20.167 24.8318 19.8992 24.8287C19.6313 24.8255 19.3754 24.7173 19.1866 24.5273L13.5264 18.6312C13.3388 18.4357 13.2365 18.1737 13.242 17.9029C13.2476 17.6321 13.3604 17.3745 13.5558 17.1869L19.452 11.5267C19.6474 11.3391 19.9094 11.2368 20.1802 11.2423C20.4511 11.2479 20.7086 11.3607 20.8963 11.5561Z" fill="white"/>
<circle cx="264" cy="18" r="17" fill="#282828"/>
<path d="M261.199 24.4864C261.009 24.2938 260.903 24.0334 260.904 23.7625C260.906 23.4916 261.015 23.2324 261.207 23.0418L266.291 18.0121L261.262 12.9278C261.077 12.7341 260.975 12.4755 260.979 12.2076C260.983 11.9398 261.092 11.6841 261.282 11.4957C261.472 11.3073 261.729 11.2013 261.997 11.2004C262.265 11.1995 262.522 11.3039 262.714 11.491L268.462 17.3016C268.653 17.4942 268.759 17.7546 268.757 18.0255C268.756 18.2964 268.647 18.5556 268.454 18.7461L262.644 24.4942C262.451 24.6847 262.191 24.7909 261.92 24.7894C261.649 24.788 261.39 24.679 261.199 24.4864Z" fill="white"/>
</svg>
