<svg width="24" height="26" viewBox="0 0 24 26" fill="none" xmlns="http://www.w3.org/2000/svg">
<path fill-rule="evenodd" clip-rule="evenodd" d="M17.9987 20.5016C17.7303 20.5108 17.4627 20.4658 17.212 20.3694C16.9613 20.273 16.7325 20.1272 16.5393 19.9405C16.3462 19.7538 16.1926 19.5302 16.0877 19.2829C15.9827 19.0357 15.9287 18.7698 15.9287 18.5012C15.9287 18.2326 15.9827 17.9667 16.0877 17.7194C16.1926 17.4721 16.3462 17.2485 16.5393 17.0618C16.7325 16.8752 16.9613 16.7293 17.212 16.6329C17.4627 16.5365 17.7303 16.4916 17.9987 16.5008C18.5174 16.5185 19.0089 16.7371 19.3696 17.1103C19.7302 17.4835 19.9318 17.9822 19.9318 18.5012C19.9318 19.0202 19.7302 19.5189 19.3696 19.8921C19.0089 20.2653 18.5174 20.4838 17.9987 20.5016ZM5.99873 14.5016C5.73027 14.5108 5.46271 14.4658 5.21199 14.3694C4.96126 14.273 4.73251 14.1272 4.53935 13.9405C4.34619 13.7538 4.19258 13.5302 4.08766 13.2829C3.98275 13.0357 3.92868 12.7698 3.92868 12.5012C3.92868 12.2326 3.98275 11.9667 4.08766 11.7194C4.19258 11.4721 4.34619 11.2485 4.53935 11.0618C4.73251 10.8752 4.96126 10.7293 5.21199 10.6329C5.46271 10.5365 5.73027 10.4916 5.99873 10.5008C6.51741 10.5185 7.00892 10.7371 7.36957 11.1103C7.73022 11.4835 7.93181 11.9822 7.93181 12.5012C7.93181 13.0202 7.73022 13.5189 7.36957 13.8921C7.00892 14.2653 6.51741 14.4838 5.99873 14.5016ZM17.9987 4.50313C18.2672 4.49394 18.5347 4.53888 18.7855 4.63527C19.0362 4.73166 19.2649 4.87753 19.4581 5.06419C19.6513 5.25085 19.8049 5.47448 19.9098 5.72176C20.0147 5.96904 20.0688 6.2349 20.0688 6.50352C20.0688 6.77213 20.0147 7.038 19.9098 7.28527C19.8049 7.53255 19.6513 7.75618 19.4581 7.94284C19.2649 8.12951 19.0362 8.27538 18.7855 8.37177C18.5347 8.46816 18.2672 8.5131 17.9987 8.50391C17.48 8.48615 16.9885 8.26762 16.6279 7.89441C16.2672 7.52121 16.0656 7.02251 16.0656 6.50352C16.0656 5.98453 16.2672 5.48583 16.6279 5.11262C16.9885 4.73942 17.48 4.52088 17.9987 4.50313ZM17.9987 14.5016C16.7706 14.5016 15.6854 15.0664 14.9519 15.9383L9.94326 13.0484C9.96669 12.868 9.99951 12.6898 9.99951 12.5023C9.99951 12.3898 9.97607 12.2844 9.96669 12.1742L15.0808 9.2211C15.4521 9.62509 15.903 9.94778 16.4052 10.1688C16.9075 10.3899 17.45 10.5045 17.9987 10.5055C18.7899 10.5055 19.5633 10.2709 20.2212 9.83138C20.8791 9.39187 21.3919 8.76717 21.6947 8.03626C21.9976 7.30535 22.077 6.50105 21.9228 5.72504C21.7686 4.94903 21.3878 4.23615 20.8285 3.67654C20.2692 3.11693 19.5566 2.7357 18.7807 2.58107C18.0048 2.42643 17.2004 2.50533 16.4693 2.80778C15.7382 3.11023 15.1132 3.62265 14.6733 4.28027C14.2334 4.93789 13.9984 5.71117 13.9979 6.50235C13.9979 6.83516 14.0519 7.15391 14.1269 7.46328L9.30341 10.2523C8.9151 9.68228 8.386 9.2223 7.76747 8.91704C7.14895 8.61178 6.46201 8.47162 5.77333 8.51016C5.08466 8.5487 4.41765 8.76463 3.83704 9.13699C3.25644 9.50936 2.78196 10.0255 2.45968 10.6353C2.13739 11.2452 1.97825 11.928 1.99768 12.6174C2.01712 13.3069 2.21448 13.9796 2.57061 14.5704C2.92674 15.1611 3.42954 15.6497 4.0302 15.9887C4.63086 16.3278 5.30897 16.5058 5.99873 16.5055C7.29951 16.5031 8.44091 15.8727 9.17216 14.9117L14.0753 17.743C13.9184 18.552 14.0152 19.3898 14.3524 20.1418C14.6896 20.8937 15.2508 21.5232 15.9593 21.9442C16.6678 22.3651 17.489 22.557 18.3107 22.4936C19.1324 22.4302 19.9144 22.1146 20.55 21.5899C21.1855 21.0653 21.6435 20.3571 21.8613 19.5623C22.0792 18.7675 22.0463 17.9248 21.7671 17.1494C21.488 16.374 20.9761 15.7038 20.3016 15.2302C19.6271 14.7567 18.8228 14.5031 17.9987 14.5039V14.5016Z" fill="white"/>
</svg>
