<svg width="179" height="38" viewBox="0 0 179 38" fill="none" xmlns="http://www.w3.org/2000/svg">
<circle cx="18.75" cy="18.75" r="18.75" fill="#424242"/>
<path fill-rule="evenodd" clip-rule="evenodd" d="M20.6667 14.3333V11.8529C20.6667 10.7331 20.924 10.1667 22.7318 10.1667H25V6H21.2151C16.5771 6 15.0469 8.04427 15.0469 11.5534V14.3333H12V18.5H15.0469V31H20.6667V18.5H24.4854L25 14.3333H20.6667Z" fill="white"/>
<circle cx="89.75" cy="18.75" r="18.75" fill="#424242"/>
<path fill-rule="evenodd" clip-rule="evenodd" d="M100 12.8958C99.2626 13.2167 98.4743 13.4333 97.6436 13.5333C98.4912 13.0333 99.1439 12.2417 99.449 11.3C98.6565 11.7625 97.7792 12.1 96.8426 12.2792C96.0924 11.4917 95.0244 11 93.8462 11C91.5787 11 89.7436 12.8083 89.7436 15.0375C89.7436 15.3542 89.7775 15.6625 89.8495 15.9583C86.4378 15.7917 83.4117 14.1833 81.3901 11.7375C81.0384 12.3333 80.8349 13.0292 80.8349 13.7667C80.8349 15.1667 81.5639 16.4042 82.6658 17.1292C81.9877 17.1125 81.352 16.9292 80.801 16.625C80.801 16.6417 80.801 16.6583 80.801 16.675C80.801 18.6333 82.2166 20.2625 84.0941 20.6333C83.7508 20.725 83.3863 20.775 83.0134 20.775C82.7506 20.775 82.4921 20.75 82.242 20.7C82.7633 22.3042 84.2806 23.4708 86.0776 23.5042C84.6747 24.5875 82.9032 25.2333 80.979 25.2333C80.6484 25.2333 80.3221 25.2125 80 25.175C81.8097 26.3333 83.9669 27 86.281 27C93.8377 27 97.9657 20.8458 97.9657 15.5083C97.9657 15.3333 97.9614 15.1583 97.953 14.9875C98.754 14.4167 99.449 13.7083 100 12.8958Z" fill="white"/>
<circle cx="160.25" cy="18.75" r="18.75" fill="#424242"/>
<circle cx="160.25" cy="19" r="3.5" fill="white"/>
<path fill-rule="evenodd" clip-rule="evenodd" d="M157.127 15.3381C158.034 14.4315 159.239 13.9268 160.521 13.9268C161.804 13.9268 163.009 14.4341 163.916 15.3407C164.491 15.916 164.902 16.6072 165.125 17.3786H168.729V12.5358C168.729 11.3996 167.85 10.5215 166.714 10.5215H154.371C153.235 10.5215 152.271 11.3996 152.271 12.5358V17.3786H155.917C156.141 16.6072 156.552 15.9133 157.127 15.3381ZM167.358 14.0869C167.358 14.3898 167.113 14.6354 166.81 14.6354H165.164C164.861 14.6354 164.615 14.3899 164.615 14.0869V12.4411C164.615 12.1382 164.861 11.8926 165.164 11.8926H166.81C167.112 11.8926 167.358 12.1381 167.358 12.4411V14.0869Z" fill="white"/>
<path fill-rule="evenodd" clip-rule="evenodd" d="M163.916 22.1262C163.009 23.0328 161.804 23.5268 160.521 23.5268C159.239 23.5268 158.034 23.0355 157.127 22.1289C156.222 21.224 155.723 19.9929 155.722 18.75H152.271V24.8786C152.271 26.0147 153.235 26.9786 154.371 26.9786H166.714C167.85 26.9786 168.729 26.0147 168.729 24.8786V18.75H165.321C165.32 19.9929 164.821 21.2213 163.916 22.1262Z" fill="white"/>
</svg>
