<svg width="44" height="10" viewBox="0 0 44 10" fill="none" xmlns="http://www.w3.org/2000/svg">
<ellipse cx="4" cy="5.05807" rx="4" ry="4.13131" fill="#D9D9D9"/>
<path d="M19.5 5.05807C19.5 7.07893 17.9179 8.68938 16 8.68938C14.0821 8.68938 12.5 7.07893 12.5 5.05807C12.5 3.0372 14.0821 1.42676 16 1.42676C17.9179 1.42676 19.5 3.0372 19.5 5.05807Z" stroke="#D9D9D9"/>
<path d="M31.5 5.05807C31.5 7.07893 29.9179 8.68938 28 8.68938C26.0821 8.68938 24.5 7.07893 24.5 5.05807C24.5 3.0372 26.0821 1.42676 28 1.42676C29.9179 1.42676 31.5 3.0372 31.5 5.05807Z" stroke="#D9D9D9"/>
<path d="M43.5 5.05807C43.5 7.07893 41.9179 8.68938 40 8.68938C38.0821 8.68938 36.5 7.07893 36.5 5.05807C36.5 3.0372 38.0821 1.42676 40 1.42676C41.9179 1.42676 43.5 3.0372 43.5 5.05807Z" stroke="#D9D9D9"/>
</svg>
