<svg width="60" height="26" viewBox="0 0 60 26" fill="none" xmlns="http://www.w3.org/2000/svg">
<path d="M35.008 17.7446C34.4107 17.7446 33.808 17.6593 33.2 17.4886C32.6027 17.3073 32.0587 17.0353 31.568 16.6726C31.4293 16.5766 31.3333 16.4646 31.28 16.3366C31.2373 16.1979 31.232 16.0646 31.264 15.9366C31.296 15.8086 31.36 15.7019 31.456 15.6166C31.552 15.5206 31.664 15.4673 31.792 15.4566C31.9307 15.4459 32.0747 15.4886 32.224 15.5846C32.6507 15.8833 33.0933 16.1073 33.552 16.2566C34.0107 16.3953 34.4907 16.4646 34.992 16.4646C35.4933 16.4646 35.9253 16.3686 36.288 16.1766C36.6507 15.9846 36.928 15.7179 37.12 15.3766C37.3227 15.0353 37.424 14.6353 37.424 14.1766C37.424 13.4726 37.216 12.8966 36.8 12.4486C36.384 12.0006 35.8187 11.7766 35.104 11.7766C34.6667 11.7766 34.2613 11.8566 33.888 12.0166C33.5253 12.1659 33.184 12.4219 32.864 12.7846C32.7893 12.8699 32.6933 12.9446 32.576 13.0086C32.4693 13.0726 32.3467 13.1046 32.208 13.1046C32.0053 13.1046 31.8507 13.0513 31.744 12.9446C31.6373 12.8273 31.584 12.6726 31.584 12.4806V6.99259C31.584 6.77925 31.6427 6.61392 31.76 6.49659C31.8773 6.37925 32.0427 6.32059 32.256 6.32059H37.648C37.8613 6.32059 38.0267 6.37392 38.144 6.48059C38.2613 6.58725 38.32 6.74192 38.32 6.94459C38.32 7.14725 38.2613 7.30725 38.144 7.42459C38.0267 7.53125 37.8613 7.58459 37.648 7.58459H33.04V11.8566H32.624C32.912 11.4299 33.296 11.0993 33.776 10.8646C34.2667 10.6299 34.8053 10.5126 35.392 10.5126C36.1067 10.5126 36.72 10.6673 37.232 10.9766C37.7547 11.2753 38.16 11.6966 38.448 12.2406C38.736 12.7739 38.88 13.3979 38.88 14.1126C38.88 14.8166 38.72 15.4459 38.4 16.0006C38.0907 16.5446 37.648 16.9713 37.072 17.2806C36.496 17.5899 35.808 17.7446 35.008 17.7446ZM44.9938 17.7446C44.0978 17.7446 43.3351 17.5259 42.7057 17.0886C42.0764 16.6513 41.5964 16.0219 41.2657 15.2006C40.9351 14.3793 40.7697 13.3873 40.7697 12.2246C40.7697 11.2433 40.8711 10.3793 41.0737 9.63259C41.2871 8.88592 41.5911 8.25659 41.9857 7.74459C42.3911 7.23259 42.8764 6.84325 43.4418 6.57659C44.0177 6.30992 44.6684 6.17659 45.3938 6.17659C45.8844 6.17659 46.3858 6.26725 46.8978 6.44859C47.4098 6.61925 47.8684 6.88059 48.2738 7.23259C48.3911 7.31792 48.4658 7.42992 48.4978 7.56859C48.5404 7.69659 48.5458 7.82459 48.5138 7.95259C48.4818 8.06992 48.4178 8.17125 48.3218 8.25659C48.2364 8.34192 48.1298 8.38992 48.0017 8.40059C47.8738 8.41125 47.7351 8.36859 47.5858 8.27259C47.2231 7.98459 46.8551 7.77659 46.4818 7.64859C46.1084 7.52059 45.7351 7.45659 45.3618 7.45659C44.6898 7.45659 44.1191 7.62725 43.6497 7.96859C43.1804 8.29925 42.8231 8.79525 42.5777 9.45659C42.3324 10.1179 42.2097 10.9446 42.2097 11.9366V13.3606H42.0497C42.1244 12.7633 42.3004 12.2513 42.5777 11.8246C42.8657 11.3979 43.2391 11.0673 43.6978 10.8326C44.1564 10.5979 44.6631 10.4806 45.2178 10.4806C45.8791 10.4806 46.4604 10.6353 46.9618 10.9446C47.4738 11.2539 47.8738 11.6753 48.1617 12.2086C48.4604 12.7419 48.6097 13.3606 48.6097 14.0646C48.6097 14.7686 48.4551 15.4033 48.1458 15.9686C47.8364 16.5233 47.4098 16.9606 46.8658 17.2806C46.3218 17.5899 45.6978 17.7446 44.9938 17.7446ZM44.8977 16.5126C45.3564 16.5126 45.7564 16.4113 46.0978 16.2086C46.4391 16.0059 46.7058 15.7233 46.8978 15.3606C47.1004 14.9979 47.2018 14.5819 47.2018 14.1126C47.2018 13.6433 47.1004 13.2273 46.8978 12.8646C46.7058 12.5019 46.4391 12.2193 46.0978 12.0166C45.7564 11.8139 45.3564 11.7126 44.8977 11.7126C44.4391 11.7126 44.0391 11.8139 43.6978 12.0166C43.3564 12.2193 43.0844 12.5019 42.8817 12.8646C42.6897 13.2273 42.5938 13.6433 42.5938 14.1126C42.5938 14.5819 42.6897 14.9979 42.8817 15.3606C43.0844 15.7233 43.3564 16.0059 43.6978 16.2086C44.0391 16.4113 44.4391 16.5126 44.8977 16.5126ZM53.5875 17.7446C53.1075 17.7446 52.6062 17.6539 52.0835 17.4726C51.5715 17.2913 51.1128 17.0299 50.7075 16.6886C50.5902 16.6033 50.5102 16.4966 50.4675 16.3686C50.4355 16.2299 50.4355 16.1019 50.4675 15.9846C50.4995 15.8566 50.5582 15.7499 50.6435 15.6646C50.7395 15.5686 50.8515 15.5153 50.9795 15.5046C51.1075 15.4939 51.2462 15.5419 51.3955 15.6486C51.7582 15.9366 52.1262 16.1446 52.4995 16.2726C52.8728 16.4006 53.2462 16.4646 53.6195 16.4646C54.2915 16.4646 54.8622 16.2993 55.3315 15.9686C55.8008 15.6273 56.1582 15.1259 56.4035 14.4646C56.6488 13.7926 56.7715 12.9659 56.7715 11.9846V10.5606H56.9315C56.8675 11.1473 56.6915 11.6593 56.4035 12.0966C56.1155 12.5233 55.7422 12.8539 55.2835 13.0886C54.8355 13.3233 54.3288 13.4406 53.7635 13.4406C53.1022 13.4406 52.5155 13.2859 52.0035 12.9766C51.5022 12.6673 51.1022 12.2459 50.8035 11.7126C50.5155 11.1686 50.3715 10.5499 50.3715 9.85659C50.3715 9.14192 50.5262 8.50725 50.8355 7.95259C51.1448 7.39792 51.5715 6.96592 52.1155 6.65659C52.6595 6.33659 53.2835 6.17659 53.9875 6.17659C54.8942 6.17659 55.6568 6.39525 56.2755 6.83259C56.9048 7.25925 57.3848 7.88859 57.7155 8.72059C58.0462 9.54192 58.2115 10.5339 58.2115 11.6966C58.2115 12.6779 58.1048 13.5419 57.8915 14.2886C57.6888 15.0353 57.3848 15.6646 56.9795 16.1766C56.5848 16.6886 56.0995 17.0779 55.5235 17.3446C54.9582 17.6113 54.3128 17.7446 53.5875 17.7446ZM54.0995 12.2086C54.5475 12.2086 54.9422 12.1073 55.2835 11.9046C55.6355 11.6913 55.9075 11.4033 56.0995 11.0406C56.2915 10.6779 56.3875 10.2619 56.3875 9.79259C56.3875 9.31259 56.2915 8.89659 56.0995 8.54459C55.9075 8.18192 55.6355 7.89925 55.2835 7.69659C54.9422 7.49392 54.5475 7.39259 54.0995 7.39259C53.6408 7.39259 53.2408 7.49392 52.8995 7.69659C52.5582 7.89925 52.2862 8.18192 52.0835 8.54459C51.8915 8.89659 51.7955 9.31259 51.7955 9.79259C51.7955 10.2619 51.8915 10.6779 52.0835 11.0406C52.2862 11.4033 52.5582 11.6913 52.8995 11.9046C53.2408 12.1073 53.6408 12.2086 54.0995 12.2086Z" fill="white"/>
<path d="M2 12.8958C2 12.8958 5 5.66602 12 5.66602C19 5.66602 22 12.8958 22 12.8958C22 12.8958 19 20.1256 12 20.1256C5 20.1256 2 12.8958 2 12.8958Z" stroke="white" stroke-width="1.16667" stroke-linecap="round" stroke-linejoin="round"/>
<path d="M12 15.9948C13.6569 15.9948 15 14.6076 15 12.8963C15 11.1851 13.6569 9.79785 12 9.79785C10.3431 9.79785 9 11.1851 9 12.8963C9 14.6076 10.3431 15.9948 12 15.9948Z" stroke="white" stroke-width="1.16667" stroke-linecap="round" stroke-linejoin="round"/>
</svg>
