<svg width="194" height="28" viewBox="0 0 194 28" fill="none" xmlns="http://www.w3.org/2000/svg">
<path d="M2.76564 27.2953C2.02728 27.2953 1.47351 27.0492 1.10433 26.557C0.759762 26.0647 0.661313 25.3756 0.808986 24.4896L4.16853 3.33551C4.29159 2.54793 4.58694 1.95724 5.05456 1.56345C5.52219 1.16965 6.1498 0.972758 6.93739 0.972758H14.6902C17.5698 0.972758 19.748 1.61267 21.2247 2.8925C22.726 4.17232 23.4767 5.93209 23.4767 8.17178C23.4767 10.0669 23.046 11.6298 22.1845 12.8604C21.3477 14.091 20.1787 15.0139 18.6773 15.6292C17.2006 16.2199 15.5147 16.503 13.6196 16.4783V15.9246H14.5794C15.7362 15.9246 16.6838 16.2568 17.4221 16.9214C18.1605 17.5613 18.7512 18.4596 19.1942 19.6164L20.9663 24.2311C21.2124 24.8711 21.2985 25.4248 21.2247 25.8925C21.1755 26.3355 20.9663 26.68 20.5971 26.9262C20.2279 27.1723 19.711 27.2953 19.0465 27.2953C18.4066 27.2953 17.8897 27.1354 17.496 26.8154C17.1268 26.4708 16.8068 25.9417 16.5361 25.2279L14.1733 19.0257C13.8534 18.1397 13.4227 17.5121 12.8812 17.1429C12.3397 16.7737 11.5768 16.5891 10.5923 16.5891H6.78971L5.49758 24.9326C5.37452 25.7202 5.07918 26.3109 4.61155 26.7047C4.16853 27.0984 3.55323 27.2953 2.76564 27.2953ZM7.34348 13.0819H13.6196C15.2932 13.0819 16.5853 12.7004 17.496 11.9374C18.4312 11.1498 18.8988 10.0177 18.8988 8.54096C18.8988 7.26114 18.505 6.30127 17.7175 5.66135C16.9299 5.02144 15.687 4.70148 13.9887 4.70148H8.67254L7.34348 13.0819Z" fill="#FFAE1B"/>
<path d="M34.6461 27.3692C32.8248 27.3692 31.2374 27.0369 29.8837 26.3724C28.5546 25.6833 27.5209 24.7234 26.7826 23.4928C26.0442 22.2622 25.675 20.8224 25.675 19.1734C25.675 17.1552 26.0934 15.3585 26.9303 13.7833C27.7917 12.1835 28.9731 10.916 30.4744 9.98077C31.9757 9.04551 33.6986 8.57788 35.6429 8.57788C37.1443 8.57788 38.3995 8.83631 39.4086 9.35316C40.4177 9.87001 41.2175 10.5715 41.8082 11.4575C42.3989 12.3189 42.7927 13.3034 42.9896 14.4109C43.1865 15.5185 43.2234 16.6506 43.1004 17.8074C43.0511 18.3243 42.9158 18.6565 42.6943 18.8042C42.4728 18.9519 42.1651 19.0257 41.7713 19.0257H29.3668L29.736 16.3676H40.0731L39.4455 16.9214C39.5932 15.9369 39.5562 15.0632 39.3347 14.3002C39.1132 13.5126 38.6948 12.885 38.0795 12.4174C37.4888 11.9497 36.6643 11.7159 35.606 11.7159C34.5231 11.7159 33.6124 11.962 32.8741 12.4543C32.1357 12.9465 31.5573 13.5864 31.1389 14.374C30.7205 15.137 30.4375 15.9615 30.2898 16.8475L30.1052 17.992C29.8099 19.7887 30.1052 21.2162 30.9912 22.2745C31.8773 23.3328 33.2309 23.862 35.0522 23.862C35.7906 23.862 36.5536 23.7881 37.3411 23.6405C38.1287 23.4682 38.8425 23.1974 39.4824 22.8283C39.95 22.5575 40.3561 22.4468 40.7007 22.496C41.0699 22.5206 41.3529 22.656 41.5498 22.9021C41.7713 23.1236 41.9067 23.4066 41.9559 23.7512C42.0051 24.0712 41.9436 24.4157 41.7713 24.7849C41.6236 25.1295 41.3529 25.4371 40.9591 25.7079C40.0977 26.2739 39.0763 26.6923 37.8949 26.9631C36.7135 27.2338 35.6306 27.3692 34.6461 27.3692ZM47.5672 27.2584C46.8534 27.2584 46.3243 27.0246 45.9797 26.557C45.6597 26.0647 45.5613 25.4002 45.6843 24.5634L47.8256 10.9406C47.9487 10.1777 48.2317 9.61159 48.6747 9.24241C49.1423 8.84861 49.7453 8.65172 50.4837 8.65172C51.1728 8.65172 51.6774 8.86092 51.9973 9.27932C52.3173 9.69773 52.4157 10.3253 52.2927 11.1621L51.9235 13.5249L51.7758 12.602C52.3911 11.2975 53.2649 10.3007 54.397 9.61159C55.5538 8.92245 56.9074 8.57788 58.458 8.57788C59.787 8.57788 60.8946 8.84861 61.7806 9.39008C62.6913 9.93154 63.3312 10.7684 63.7004 11.9005C64.0942 13.0081 64.1557 14.4355 63.885 16.183L62.519 24.9695C62.4205 25.7325 62.1375 26.3109 61.6699 26.7047C61.2269 27.0738 60.6239 27.2584 59.8609 27.2584C59.1471 27.2584 58.618 27.0246 58.2734 26.557C57.9288 26.0647 57.8181 25.4002 57.9411 24.5634L59.2702 16.2568C59.4917 14.9032 59.3809 13.8941 58.9379 13.2296C58.5195 12.5404 57.7442 12.1959 56.6121 12.1959C55.16 12.1959 53.9909 12.6512 53.1049 13.5618C52.2435 14.4725 51.6897 15.7154 51.4436 17.2905L50.2253 24.9695C50.0038 26.4955 49.1177 27.2584 47.5672 27.2584ZM75.4389 27.3692C73.8391 27.3692 72.5223 27.0738 71.4886 26.4831C70.4549 25.8678 69.7289 25.031 69.3105 23.9727C68.9167 22.9144 68.8305 21.6838 69.052 20.2809L70.3073 12.4174H68.6829C68.0922 12.4174 67.6245 12.2943 67.28 12.0482C66.96 11.7774 66.8 11.4083 66.8 10.9406C66.8 10.3007 67.0092 9.80848 67.4276 9.46392C67.846 9.11935 68.4121 8.94706 69.1259 8.94706H70.861L71.4148 5.40293C71.5379 4.68918 71.8086 4.16002 72.227 3.81545C72.6454 3.44627 73.2115 3.26168 73.9252 3.26168C74.7128 3.26168 75.2789 3.48319 75.6235 3.92621C75.968 4.36922 76.0788 4.99683 75.9557 5.80903L75.4758 8.94706H79.0938C79.7091 8.94706 80.1767 9.07012 80.4966 9.31624C80.8412 9.53775 81.0135 9.89463 81.0135 10.3869C81.0135 10.9776 80.8166 11.4698 80.4228 11.8636C80.0536 12.2328 79.5368 12.4174 78.8722 12.4174H74.922L73.7037 19.9856C73.5068 21.2654 73.6668 22.1883 74.1836 22.7544C74.7005 23.2959 75.4266 23.5666 76.3618 23.5666C76.8048 23.5666 77.1494 23.5297 77.3955 23.4559C77.6663 23.382 77.9247 23.3451 78.1708 23.3451C78.5154 23.3451 78.7615 23.4436 78.9092 23.6405C79.0814 23.8127 79.1676 24.145 79.1676 24.6372C79.1676 25.4741 79.0322 26.0524 78.7615 26.3724C78.4908 26.6923 78.1216 26.9262 77.6539 27.0738C77.3586 27.1723 77.0017 27.2461 76.5833 27.2953C76.1649 27.3446 75.7834 27.3692 75.4389 27.3692ZM83.7746 27.2953C83.0854 27.2953 82.5563 27.0738 82.1871 26.6308C81.8425 26.1632 81.7318 25.511 81.8548 24.6742L85.362 2.67099C85.4851 1.98185 85.7312 1.4773 86.1004 1.15735C86.4942 0.837391 86.9741 0.677413 87.5402 0.677413C88.1555 0.677413 88.6108 0.800474 88.9062 1.0466C89.2261 1.2681 89.5461 1.63728 89.866 2.15414L100.905 20.8716H99.9816L102.824 2.85558C102.947 2.11722 103.218 1.57575 103.636 1.23119C104.055 0.862004 104.633 0.677413 105.372 0.677413C106.061 0.677413 106.553 0.911228 106.848 1.37886C107.168 1.82187 107.267 2.44948 107.144 3.26168L103.673 25.2279C103.575 25.9171 103.353 26.4339 103.009 26.7785C102.664 27.1231 102.209 27.2953 101.643 27.2953C101.028 27.2953 100.535 27.1723 100.166 26.9262C99.797 26.68 99.4524 26.2863 99.1325 25.7448L88.094 7.10116H89.0169L86.1742 25.1172C86.0758 25.8555 85.8297 26.4093 85.4359 26.7785C85.0667 27.1231 84.5129 27.2953 83.7746 27.2953ZM114.788 27.3692C113.681 27.3692 112.672 27.1231 111.761 26.6308C110.85 26.114 110.112 25.4371 109.546 24.6003C109.005 23.7635 108.734 22.8283 108.734 21.7946C108.734 20.5147 109.091 19.481 109.804 18.6934C110.518 17.8812 111.626 17.2782 113.127 16.8844C114.628 16.4907 116.548 16.2938 118.886 16.2938H121.84L121.434 18.9519H119.108C117.656 18.9519 116.499 19.0257 115.637 19.1734C114.776 19.321 114.161 19.5795 113.792 19.9486C113.422 20.3178 113.238 20.8347 113.238 21.4992C113.238 22.3606 113.521 23.0252 114.087 23.4928C114.678 23.9604 115.391 24.1942 116.228 24.1942C117.016 24.1942 117.729 24.0342 118.369 23.7143C119.009 23.3697 119.551 22.8898 119.994 22.2745C120.437 21.6346 120.72 20.8839 120.843 20.0225L121.544 15.6292C121.741 14.4725 121.557 13.5864 120.991 12.9711C120.449 12.3558 119.489 12.0482 118.111 12.0482C117.299 12.0482 116.511 12.1343 115.748 12.3066C114.985 12.4543 114.198 12.7127 113.385 13.0819C112.918 13.2788 112.499 13.3403 112.13 13.2665C111.761 13.1926 111.453 13.0327 111.207 12.7865C110.986 12.5158 110.863 12.2082 110.838 11.8636C110.813 11.4944 110.912 11.1375 111.133 10.793C111.38 10.4484 111.773 10.1531 112.315 9.90693C113.349 9.4393 114.419 9.10704 115.527 8.91014C116.659 8.68864 117.717 8.57788 118.702 8.57788C120.646 8.57788 122.172 8.93476 123.279 9.64851C124.387 10.3623 125.138 11.3344 125.532 12.565C125.925 13.7956 125.999 15.1985 125.753 16.7737L124.461 25.0064C124.362 25.7694 124.092 26.3478 123.649 26.7416C123.23 27.1108 122.664 27.2953 121.95 27.2953C121.286 27.2953 120.781 27.0861 120.437 26.6677C120.117 26.2247 120.018 25.5848 120.141 24.748L120.511 22.4222L120.769 23.1605C120.425 24.1204 119.932 24.9203 119.292 25.5602C118.677 26.1755 117.976 26.6308 117.188 26.9262C116.425 27.2215 115.625 27.3692 114.788 27.3692ZM137.378 27.3692C135.778 27.3692 134.461 27.0738 133.427 26.4831C132.394 25.8678 131.668 25.031 131.249 23.9727C130.855 22.9144 130.769 21.6838 130.991 20.2809L132.246 12.4174H130.622C130.031 12.4174 129.563 12.2943 129.219 12.0482C128.899 11.7774 128.739 11.4083 128.739 10.9406C128.739 10.3007 128.948 9.80848 129.366 9.46392C129.785 9.11935 130.351 8.94706 131.065 8.94706H132.8L133.354 5.40293C133.477 4.68918 133.747 4.16002 134.166 3.81545C134.584 3.44627 135.15 3.26168 135.864 3.26168C136.652 3.26168 137.218 3.48319 137.562 3.92621C137.907 4.36922 138.017 4.99683 137.894 5.80903L137.415 8.94706H141.032C141.648 8.94706 142.115 9.07012 142.435 9.31624C142.78 9.53775 142.952 9.89463 142.952 10.3869C142.952 10.9776 142.755 11.4698 142.362 11.8636C141.992 12.2328 141.475 12.4174 140.811 12.4174H136.861L135.642 19.9856C135.446 21.2654 135.606 22.1883 136.122 22.7544C136.639 23.2959 137.365 23.5666 138.301 23.5666C138.744 23.5666 139.088 23.5297 139.334 23.4559C139.605 23.382 139.863 23.3451 140.11 23.3451C140.454 23.3451 140.7 23.4436 140.848 23.6405C141.02 23.8127 141.106 24.145 141.106 24.6372C141.106 25.4741 140.971 26.0524 140.7 26.3724C140.429 26.6923 140.06 26.9262 139.593 27.0738C139.297 27.1723 138.94 27.2461 138.522 27.2953C138.104 27.3446 137.722 27.3692 137.378 27.3692ZM145.702 27.2953C144.988 27.2953 144.459 27.0615 144.115 26.5939C143.795 26.1017 143.696 25.4371 143.819 24.6003L145.997 10.9406C146.12 10.1777 146.403 9.61159 146.846 9.24241C147.29 8.84861 147.893 8.65172 148.655 8.65172C149.369 8.65172 149.886 8.88553 150.206 9.35316C150.551 9.82079 150.661 10.4853 150.538 11.3467L148.36 25.0064C148.237 25.7694 147.954 26.3478 147.511 26.7416C147.093 27.1108 146.49 27.2953 145.702 27.2953ZM149.246 5.25525C148.409 5.25525 147.782 5.05836 147.363 4.66457C146.97 4.24616 146.81 3.66778 146.883 2.92942C146.982 2.09261 147.302 1.465 147.843 1.0466C148.385 0.603578 149.111 0.38207 150.021 0.38207C150.858 0.38207 151.486 0.591272 151.904 1.00968C152.323 1.40347 152.483 1.96955 152.384 2.70791C152.286 3.54472 151.966 4.18463 151.424 4.62765C150.907 5.04605 150.181 5.25525 149.246 5.25525ZM161.757 27.3692C159.985 27.3692 158.459 27.0369 157.179 26.3724C155.924 25.7079 154.952 24.7603 154.263 23.5297C153.598 22.2991 153.266 20.8593 153.266 19.2103C153.266 17.5859 153.524 16.1215 154.041 14.817C154.558 13.5126 155.272 12.3927 156.182 11.4575C157.118 10.5222 158.188 9.80848 159.394 9.31624C160.6 8.824 161.905 8.57788 163.308 8.57788C165.08 8.57788 166.593 8.91014 167.849 9.57467C169.128 10.2392 170.101 11.1868 170.765 12.4174C171.454 13.6234 171.799 15.0632 171.799 16.7368C171.799 18.3612 171.54 19.8256 171.024 21.13C170.507 22.4345 169.781 23.5543 168.845 24.4896C167.935 25.4248 166.876 26.1386 165.67 26.6308C164.464 27.1231 163.16 27.3692 161.757 27.3692ZM161.868 23.862C163 23.862 163.948 23.542 164.711 22.9021C165.498 22.2622 166.101 21.3885 166.52 20.2809C166.938 19.1734 167.147 17.9428 167.147 16.5891C167.147 15.137 166.79 14.0295 166.076 13.2665C165.387 12.4789 164.427 12.0851 163.197 12.0851C162.089 12.0851 161.142 12.4051 160.354 13.045C159.567 13.6849 158.964 14.5586 158.545 15.6662C158.127 16.7491 157.918 17.9797 157.918 19.358C157.918 20.8101 158.262 21.9299 158.951 22.7175C159.665 23.4805 160.637 23.862 161.868 23.862ZM176.42 27.2584C175.706 27.2584 175.177 27.0246 174.832 26.557C174.512 26.0647 174.414 25.4002 174.537 24.5634L176.678 10.9406C176.801 10.1777 177.084 9.61159 177.527 9.24241C177.995 8.84861 178.598 8.65172 179.336 8.65172C180.026 8.65172 180.53 8.86092 180.85 9.27932C181.17 9.69773 181.268 10.3253 181.145 11.1621L180.776 13.5249L180.629 12.602C181.244 11.2975 182.118 10.3007 183.25 9.61159C184.406 8.92245 185.76 8.57788 187.311 8.57788C188.64 8.57788 189.747 8.84861 190.633 9.39008C191.544 9.93154 192.184 10.7684 192.553 11.9005C192.947 13.0081 193.008 14.4355 192.738 16.183L191.372 24.9695C191.273 25.7325 190.99 26.3109 190.523 26.7047C190.08 27.0738 189.477 27.2584 188.714 27.2584C188 27.2584 187.471 27.0246 187.126 26.557C186.782 26.0647 186.671 25.4002 186.794 24.5634L188.123 16.2568C188.344 14.9032 188.234 13.8941 187.791 13.2296C187.372 12.5404 186.597 12.1959 185.465 12.1959C184.013 12.1959 182.844 12.6512 181.958 13.5618C181.096 14.4725 180.542 15.7154 180.296 17.2905L179.078 24.9695C178.856 26.4955 177.97 27.2584 176.42 27.2584Z" fill="white"/>
</svg>
